<svg width="100" height="100" viewBox="0 0 100 100" fill="none" xmlns="http://www.w3.org/2000/svg">
<path d="M52.2187 13.4187C51.9285 13.1277 51.5836 12.8968 51.204 12.7392C50.8243 12.5817 50.4173 12.5006 50.0063 12.5006C49.5952 12.5006 49.1882 12.5817 48.8085 12.7392C48.4289 12.8968 48.084 13.1277 47.7937 13.4187C40.025 21.1749 31.4375 24.9999 21.875 24.9999C21.0462 24.9999 20.2513 25.3292 19.6653 25.9152C19.0792 26.5013 18.75 27.2961 18.75 28.1249V46.8812C18.75 65.1499 27.2125 78.1062 43.75 85.325V62.5C43.7493 59.7282 44.6698 57.0348 46.3669 54.8434C48.064 52.6519 50.4413 51.0866 53.125 50.3937V50C53.124 46.7081 53.9896 43.4741 55.6349 40.6229C57.2801 37.7718 59.647 35.404 62.4975 33.7576C65.348 32.1113 68.5818 31.2444 71.8736 31.2442C75.1654 31.2439 78.3992 32.1103 81.25 33.7562V28.1249C81.25 27.2961 80.9208 26.5013 80.3347 25.9152C79.7487 25.3292 78.9538 24.9999 78.125 24.9999C68.5563 24.9999 59.9687 21.1874 52.2187 13.4187ZM59.375 56.25V50C59.375 46.6847 60.692 43.5053 63.0362 41.1611C65.3804 38.8169 68.5598 37.4999 71.875 37.4999C75.1902 37.4999 78.3696 38.8169 80.7138 41.1611C83.058 43.5053 84.375 46.6847 84.375 50V56.25H87.5C89.1576 56.25 90.7473 56.9084 91.9194 58.0805C93.0915 59.2526 93.75 60.8423 93.75 62.5V87.4999C93.75 89.1576 93.0915 90.7473 91.9194 91.9194C90.7473 93.0915 89.1576 93.7499 87.5 93.7499H56.25C54.5924 93.7499 53.0027 93.0915 51.8306 91.9194C50.6585 90.7473 50 89.1576 50 87.4999V62.5C50 60.8423 50.6585 59.2526 51.8306 58.0805C53.0027 56.9084 54.5924 56.25 56.25 56.25H59.375ZM65.625 50V56.25H78.125V50C78.125 48.3423 77.4665 46.7526 76.2944 45.5805C75.1223 44.4084 73.5326 43.7499 71.875 43.7499C70.2174 43.7499 68.6277 44.4084 67.4556 45.5805C66.2835 46.7526 65.625 48.3423 65.625 50ZM76.5625 74.9999C76.5625 73.7567 76.0686 72.5645 75.1896 71.6854C74.3105 70.8063 73.1182 70.3124 71.875 70.3124C70.6318 70.3124 69.4395 70.8063 68.5604 71.6854C67.6814 72.5645 67.1875 73.7567 67.1875 74.9999C67.1875 76.2431 67.6814 77.4354 68.5604 78.3145C69.4395 79.1936 70.6318 79.6874 71.875 79.6874C73.1182 79.6874 74.3105 79.1936 75.1896 78.3145C76.0686 77.4354 76.5625 76.2431 76.5625 74.9999Z" fill="#2469B3"/>
</svg>
